<?xml version="1.0" standalone="no"?>
<!DOCTYPE svg PUBLIC "-//W3C//DTD SVG 20010904//EN"
 "http://www.w3.org/TR/2001/REC-SVG-20010904/DTD/svg10.dtd">
<svg version="1.0" xmlns="http://www.w3.org/2000/svg"
 width="499.000000pt" height="499.000000pt" viewBox="0 0 499.000000 499.000000"
 preserveAspectRatio="xMidYMid meet">

<g transform="translate(0.000000,499.000000) scale(0.100000,-0.100000)"
fill="#000000" stroke="none">
<path d="M1828 3534 c-36 -19 -58 -63 -58 -116 l0 -43 80 80 c44 44 80 83 80
87 0 14 -74 8 -102 -8z"/>
<path d="M2745 3460 l-90 -90 85 0 85 0 83 83 c45 45 82 86 82 90 0 4 -35 7
-78 7 l-77 0 -90 -90z"/>
<path d="M2464 3528 c-4 -6 -3 -8 2 -5 6 3 11 -3 11 -14 1 -10 -3 -19 -8 -19
-6 0 -7 5 -4 10 14 23 -15 7 -46 -26 -19 -19 -47 -48 -64 -65 l-29 -29 68 0
c67 0 70 1 122 46 32 27 51 51 47 57 -3 7 -2 9 2 4 11 -10 46 23 38 36 -3 5
-1 7 5 3 6 -3 13 -2 17 4 4 6 -22 10 -74 10 -50 0 -83 -4 -87 -12z m120 -14
c3 -8 2 -12 -4 -9 -6 3 -10 10 -10 16 0 14 7 11 14 -7z m-114 -39 c0 -2 -9 -3
-19 -2 -11 0 -18 5 -15 9 4 6 34 0 34 -7z m-68 -48 c-7 -8 -8 -18 -4 -22 4 -5
1 -5 -6 -1 -9 5 -9 12 -1 27 6 12 13 18 16 15 3 -3 1 -12 -5 -19z m118 8 c0
-7 -30 -13 -34 -7 -3 4 4 9 15 9 10 1 19 0 19 -2z"/>
<path d="M3042 3407 c-28 -30 -28 -37 3 -37 21 0 25 5 25 30 0 36 -1 36 -28 7z"/>
<path d="M2593 3303 l-163 -3 0 -115 c0 -113 2 -121 33 -116 4 0 7 -4 7 -10 0
-6 10 -8 23 -5 12 3 16 3 9 0 -10 -5 -9 -9 5 -20 10 -7 23 -13 28 -14 6 0 3 5
-5 10 -8 5 -10 10 -5 10 6 0 17 -5 25 -10 8 -5 11 -10 6 -10 -17 0 28 -29 46
-30 15 0 19 -22 6 -36 -4 -3 -4 -12 -1 -20 3 -8 0 -14 -7 -14 -6 0 -9 4 -6 9
14 22 -25 16 -91 -15 l-73 -33 0 -130 0 -131 24 0 c13 0 27 6 30 13 4 8 5 7 4
-3 -1 -8 1 -22 5 -30 3 -8 7 -43 10 -78 3 -60 18 -89 39 -76 4 3 8 0 8 -7 0
-8 12 -10 36 -6 38 6 75 32 73 51 -5 45 18 76 57 76 18 0 25 -7 30 -27 10 -47
13 -53 29 -59 21 -9 41 11 49 46 4 23 11 30 29 30 40 0 47 -18 47 -122 0 -87
2 -99 22 -118 32 -29 92 -27 124 5 l24 24 -2 483 -3 483 -155 0 c-85 1 -228
-1 -317 -2z m28 -251 c-7 -2 -18 1 -23 6 -8 8 -4 9 13 5 13 -4 18 -8 10 -11z
m52 -59 c-7 -2 -21 -2 -30 0 -10 3 -4 5 12 5 17 0 24 -2 18 -5z m-196 -139
c-3 -3 -12 -4 -19 -1 -8 3 -5 6 6 6 11 1 17 -2 13 -5z m55 -206 c-11 -11 -3
-60 9 -52 5 3 6 -2 3 -10 -5 -12 -8 -12 -25 2 -10 9 -19 21 -19 27 0 5 5 3 10
-5 8 -11 9 -5 7 22 -3 28 -1 35 10 31 9 -4 11 -9 5 -15z m22 -24 c3 -8 2 -12
-4 -9 -6 3 -10 10 -10 16 0 14 7 11 14 -7z m104 -59 c-3 -3 -9 2 -12 12 -6 14
-5 15 5 6 7 -7 10 -15 7 -18z m-14 -24 c4 -5 -3 -7 -14 -4 -23 6 -26 13 -6 13
8 0 17 -4 20 -9z m-127 -23 c-3 -8 -6 -5 -6 6 -1 11 2 17 5 13 3 -3 4 -12 1
-19z m127 -6 c-6 -4 -14 -14 -17 -22 -4 -10 -6 -8 -6 8 -1 15 5 22 17 22 10 0
13 -3 6 -8z m-98 -14 c5 -7 3 -8 -6 -3 -9 5 -10 2 -5 -14 4 -13 2 -21 -5 -21
-6 0 -9 4 -5 9 3 5 0 13 -6 17 -8 4 -7 9 2 15 18 11 17 11 25 -3z m59 -8 c3
-5 1 -10 -4 -10 -6 0 -11 5 -11 10 0 6 2 10 4 10 3 0 8 -4 11 -10z"/>
<path d="M1770 2880 c0 -363 2 -425 16 -451 29 -58 130 -77 204 -39 45 23 58
43 69 103 4 24 13 41 19 39 9 -1 12 93 12 383 l0 385 -160 0 -160 0 0 -420z"/>
<path d="M2489 2329 c-10 -25 -9 -32 6 -49 22 -24 41 -25 63 -4 34 34 20 77
-26 80 -25 2 -33 -3 -43 -27z m75 -2 c4 4 4 0 1 -10 -6 -14 -9 -14 -21 -2 -18
17 -18 31 -1 16 8 -6 17 -8 21 -4z"/>
<path d="M1962 2258 c4 -27 33 -36 42 -13 8 22 -1 35 -25 35 -15 0 -20 -6 -17
-22z"/>
<path d="M2617 2224 c-14 -15 -6 -34 14 -34 14 0 19 5 17 17 -3 18 -20 27 -31
17z"/>
<path d="M1777 2043 c-4 -3 -7 -80 -7 -170 l0 -163 30 0 29 0 3 113 3 112 24
-47 c22 -43 29 -48 58 -48 30 0 36 5 56 46 l22 46 5 -108 5 -109 28 -3 27 -3
-2 168 -3 168 -27 3 c-25 3 -31 -4 -69 -80 l-42 -83 -41 83 c-35 71 -44 82
-67 82 -14 0 -29 -3 -32 -7z"/>
<path d="M2168 2021 l-33 -29 0 -111 c0 -107 1 -111 28 -138 24 -25 35 -28 92
-28 57 0 68 3 92 28 27 27 28 31 28 138 l0 111 -33 29 c-27 25 -41 29 -87 29
-46 0 -60 -4 -87 -29z m136 -43 c11 -16 16 -46 16 -100 0 -87 -17 -118 -65
-118 -48 0 -65 31 -65 118 0 94 15 122 65 122 24 0 39 -7 49 -22z"/>
<path d="M2419 2045 c-6 -5 45 -212 71 -291 12 -37 42 -51 84 -40 27 7 36 28
81 201 14 55 29 108 31 118 5 16 1 18 -27 15 l-32 -3 -35 -142 c-19 -79 -38
-143 -42 -143 -4 0 -23 64 -42 143 -32 133 -36 142 -59 145 -14 2 -27 0 -30
-3z"/>
<path d="M2740 1879 l0 -170 28 3 27 3 3 168 2 167 -30 0 -30 0 0 -171z"/>
<path d="M2895 2025 c-24 -23 -25 -30 -25 -145 0 -116 1 -122 25 -146 23 -23
31 -25 97 -22 67 3 73 5 76 25 3 21 -1 22 -65 25 l-68 3 -3 48 -3 47 65 0 c64
0 66 1 66 25 0 24 -2 25 -66 25 l-65 0 3 43 3 42 68 3 c64 3 67 4 67 27 0 24
-2 25 -75 25 -67 0 -79 -3 -100 -25z"/>
<path d="M1775 1561 c-3 -5 -2 -12 3 -15 5 -3 9 1 9 9 0 17 -3 19 -12 6z"/>
<path d="M3010 1560 c0 -5 5 -10 11 -10 5 0 7 5 4 10 -3 6 -8 10 -11 10 -2 0
-4 -4 -4 -10z"/>
<path d="M2510 1536 c0 -8 4 -17 9 -20 5 -4 7 3 4 14 -6 23 -13 26 -13 6z"/>
<path d="M1811 1524 c0 -11 3 -14 6 -6 3 7 2 16 -1 19 -3 4 -6 -2 -5 -13z"/>
<path d="M2800 1531 c0 -6 4 -13 10 -16 6 -3 7 1 4 9 -7 18 -14 21 -14 7z"/>
<path d="M3045 1520 c3 -5 8 -10 11 -10 2 0 4 5 4 10 0 6 -5 10 -11 10 -5 0
-7 -4 -4 -10z"/>
</g>
</svg>
